<mxfile host="app.diagrams.net" agent="Mozilla/5.0 (Macintosh; Intel Mac OS X 10_15_7) AppleWebKit/537.36 (KHTML, like Gecko) Chrome/134.0.0.0 Safari/537.36" version="26.1.0">
  <diagram name="Page-1" id="lzhs7jlASKmkLAnG86HH">
    <mxGraphModel dx="968" dy="629" grid="1" gridSize="10" guides="1" tooltips="1" connect="1" arrows="1" fold="1" page="1" pageScale="1" pageWidth="1100" pageHeight="850" math="0" shadow="0">
      <root>
        <mxCell id="0" />
        <mxCell id="1" parent="0" />
        <mxCell id="xQcc1Ng_U5rpTBV9tApy-9" style="edgeStyle=orthogonalEdgeStyle;rounded=0;orthogonalLoop=1;jettySize=auto;html=1;" parent="1" source="xQcc1Ng_U5rpTBV9tApy-1" target="xQcc1Ng_U5rpTBV9tApy-2" edge="1">
          <mxGeometry relative="1" as="geometry" />
        </mxCell>
        <mxCell id="xQcc1Ng_U5rpTBV9tApy-1" value="daily_sink" style="shape=cylinder3;whiteSpace=wrap;html=1;boundedLbl=1;backgroundOutline=1;size=15;" parent="1" vertex="1">
          <mxGeometry x="290" y="200" width="110" height="70" as="geometry" />
        </mxCell>
        <mxCell id="xQcc1Ng_U5rpTBV9tApy-11" style="edgeStyle=orthogonalEdgeStyle;rounded=0;orthogonalLoop=1;jettySize=auto;html=1;" parent="1" source="xQcc1Ng_U5rpTBV9tApy-2" target="xQcc1Ng_U5rpTBV9tApy-3" edge="1">
          <mxGeometry relative="1" as="geometry" />
        </mxCell>
        <mxCell id="xQcc1Ng_U5rpTBV9tApy-2" value="staging_table" style="shape=cylinder3;whiteSpace=wrap;html=1;boundedLbl=1;backgroundOutline=1;size=15;" parent="1" vertex="1">
          <mxGeometry x="510" y="200" width="110" height="70" as="geometry" />
        </mxCell>
        <mxCell id="xQcc1Ng_U5rpTBV9tApy-3" value="prod_table" style="shape=cylinder3;whiteSpace=wrap;html=1;boundedLbl=1;backgroundOutline=1;size=15;" parent="1" vertex="1">
          <mxGeometry x="780" y="200" width="110" height="70" as="geometry" />
        </mxCell>
        <mxCell id="xQcc1Ng_U5rpTBV9tApy-4" value="recent_listings" style="shape=cylinder3;whiteSpace=wrap;html=1;boundedLbl=1;backgroundOutline=1;size=15;" parent="1" vertex="1">
          <mxGeometry x="410" y="80" width="110" height="70" as="geometry" />
        </mxCell>
        <mxCell id="xQcc1Ng_U5rpTBV9tApy-5" value="trademark_table" style="shape=cylinder3;whiteSpace=wrap;html=1;boundedLbl=1;backgroundOutline=1;size=15;" parent="1" vertex="1">
          <mxGeometry x="640" y="80" width="110" height="70" as="geometry" />
        </mxCell>
        <mxCell id="xQcc1Ng_U5rpTBV9tApy-7" style="edgeStyle=orthogonalEdgeStyle;rounded=0;orthogonalLoop=1;jettySize=auto;html=1;" parent="1" source="xQcc1Ng_U5rpTBV9tApy-6" target="xQcc1Ng_U5rpTBV9tApy-1" edge="1">
          <mxGeometry relative="1" as="geometry" />
        </mxCell>
        <mxCell id="xQcc1Ng_U5rpTBV9tApy-6" value=".parquet file in ADLS" style="ellipse;whiteSpace=wrap;html=1;aspect=fixed;" parent="1" vertex="1">
          <mxGeometry x="70" y="195" width="80" height="80" as="geometry" />
        </mxCell>
        <mxCell id="xQcc1Ng_U5rpTBV9tApy-8" style="edgeStyle=orthogonalEdgeStyle;rounded=0;orthogonalLoop=1;jettySize=auto;html=1;entryX=0.5;entryY=1;entryDx=0;entryDy=0;entryPerimeter=0;" parent="1" source="xQcc1Ng_U5rpTBV9tApy-1" target="xQcc1Ng_U5rpTBV9tApy-4" edge="1">
          <mxGeometry relative="1" as="geometry" />
        </mxCell>
        <mxCell id="xQcc1Ng_U5rpTBV9tApy-10" style="edgeStyle=orthogonalEdgeStyle;rounded=0;orthogonalLoop=1;jettySize=auto;html=1;entryX=0.5;entryY=1;entryDx=0;entryDy=0;entryPerimeter=0;" parent="1" source="xQcc1Ng_U5rpTBV9tApy-2" target="xQcc1Ng_U5rpTBV9tApy-5" edge="1">
          <mxGeometry relative="1" as="geometry" />
        </mxCell>
        <mxCell id="ABZ1Z-LYkdpdBJwRt2aR-1" value="listing_images" style="shape=cylinder3;whiteSpace=wrap;html=1;boundedLbl=1;backgroundOutline=1;size=15;" vertex="1" parent="1">
          <mxGeometry x="770" y="310" width="130" height="70" as="geometry" />
        </mxCell>
        <mxCell id="ABZ1Z-LYkdpdBJwRt2aR-2" style="edgeStyle=orthogonalEdgeStyle;rounded=0;orthogonalLoop=1;jettySize=auto;html=1;entryX=0;entryY=0.5;entryDx=0;entryDy=0;entryPerimeter=0;" edge="1" parent="1" source="xQcc1Ng_U5rpTBV9tApy-2" target="ABZ1Z-LYkdpdBJwRt2aR-1">
          <mxGeometry relative="1" as="geometry">
            <Array as="points">
              <mxPoint x="720" y="235" />
              <mxPoint x="720" y="340" />
              <mxPoint x="770" y="340" />
            </Array>
          </mxGeometry>
        </mxCell>
      </root>
    </mxGraphModel>
  </diagram>
</mxfile>
